<svg width="20" height="20" viewBox="0 0 20 20" fill="none" xmlns="http://www.w3.org/2000/svg">
<path fill-rule="evenodd" clip-rule="evenodd" d="M19.3 4.11118C18.754 4.89315 18.124 5.58823 17.368 6.15299C17.368 6.28331 17.368 6.45708 17.368 6.6743C17.368 7.76036 17.242 8.84643 16.906 9.88905C16.612 10.9751 16.15 12.0177 15.52 12.9735C14.932 13.9727 14.176 14.8415 13.336 15.6235C12.454 16.362 11.446 16.9702 10.228 17.4046C9.00999 17.8825 7.70799 18.0997 6.36399 18.0997C4.17999 18.0997 2.20599 17.4915 0.399994 16.2751C0.693994 16.3186 0.987994 16.362 1.32399 16.362C3.12999 16.362 4.72599 15.7538 6.15399 14.6243C5.31399 14.6243 4.55799 14.3636 3.88599 13.8423C3.21399 13.321 2.75199 12.6694 2.49999 11.844C2.79399 11.8874 3.04599 11.9309 3.25599 11.9309C3.59199 11.9309 3.92799 11.8874 4.26399 11.7571C3.38199 11.5833 2.62599 11.1054 2.03799 10.4104C1.44999 9.67184 1.15599 8.80299 1.15599 7.84725V7.80381C1.70199 8.1079 2.28999 8.28167 2.91999 8.28167C2.37399 7.93413 1.95399 7.45626 1.65999 6.89151C1.32399 6.28331 1.19799 5.63167 1.19799 4.98003C1.19799 4.24151 1.36599 3.54643 1.70199 2.93823C2.66799 4.15463 3.84399 5.15381 5.22999 5.89233C6.61599 6.63085 8.12799 7.06528 9.72399 7.15217C9.63999 6.80463 9.59799 6.50053 9.59799 6.19643C9.59799 5.11036 9.97599 4.15463 10.732 3.37266C11.488 2.59069 12.412 2.19971 13.504 2.19971C14.596 2.19971 15.562 2.63413 16.318 3.45954C17.2 3.28577 17.998 2.98167 18.796 2.50381C18.502 3.45954 17.914 4.19807 17.074 4.71938C17.83 4.63249 18.544 4.41528 19.3 4.11118Z" fill="white"/>
</svg>
